<svg width="148" height="288" viewBox="0 0 148 288" fill="none" xmlns="http://www.w3.org/2000/svg">
<path d="M50.3224 282.892V274.055L34.4784 273.942L34.3441 287.305L35.3259 287.378C39.6977 287.657 57.5674 288.07 60.5026 287.16C63.7686 286.148 50.3224 282.892 50.3224 282.892Z" fill="#4CAF4F"/>
<path d="M60.8747 286.334C60.8747 286.478 54.9423 286.602 47.6352 286.602C40.3282 286.602 34.3958 286.478 34.3958 286.334C34.3958 286.189 40.3282 286.065 47.6352 286.065C54.9423 286.065 60.8747 286.189 60.8747 286.334Z" fill="#263238"/>
<path d="M50.6014 284.701C50.4671 284.628 50.6014 284.163 50.9218 283.667C51.2422 283.171 51.6763 282.964 51.7797 283.068C51.883 283.171 51.666 283.564 51.3559 283.988C51.0459 284.411 50.7358 284.773 50.6014 284.701Z" fill="#263238"/>
<path d="M51.6143 285.279C51.4696 285.279 51.542 284.701 51.852 284.153C52.1621 283.605 52.5755 283.274 52.6892 283.357C52.8029 283.44 52.6168 283.905 52.3275 284.391C52.0381 284.876 51.7487 285.331 51.6143 285.279Z" fill="#263238"/>
<path d="M39.1707 286.292C39.1086 286.292 38.8709 286.106 38.5299 285.713C38.1135 285.209 37.6498 284.745 37.1449 284.329C36.6485 283.932 36.0571 283.672 35.4293 283.574C34.9435 283.512 34.6335 283.574 34.6025 283.512C34.5715 283.45 34.8712 283.233 35.4396 283.192C36.1898 283.176 36.9216 283.425 37.5067 283.894C38.0548 284.341 38.5171 284.884 38.8709 285.496C39.1086 285.951 39.2327 286.251 39.1707 286.292Z" fill="#263238"/>
<path d="M50.6531 283.037C50.7255 283.161 50.4567 283.471 50.002 283.636C49.5472 283.802 49.1442 283.739 49.1235 283.636C49.1028 283.533 49.4232 283.316 49.816 283.171C50.2087 283.026 50.5704 282.913 50.6531 283.037Z" fill="#263238"/>
<path d="M50.405 282.179C50.405 282.334 49.9916 282.458 49.4542 282.468C48.9168 282.479 48.493 282.355 48.5034 282.21C48.5137 282.065 48.9374 281.931 49.4542 281.92C49.971 281.91 50.3844 282.034 50.405 282.179Z" fill="#263238"/>
<path d="M89.338 282.892V274.055L73.494 273.942L73.3597 287.171L74.3415 287.243C78.7133 287.522 96.5934 288.07 99.5182 287.16C102.784 286.148 89.338 282.892 89.338 282.892Z" fill="#4CAF4F"/>
<path d="M99.8903 286.354C99.8903 286.499 93.9682 286.623 86.6508 286.623C79.3335 286.623 73.4217 286.499 73.4217 286.354C73.4217 286.21 79.3438 286.086 86.6508 286.086C93.9579 286.086 99.8903 286.21 99.8903 286.354Z" fill="#263238"/>
<path d="M89.6171 284.701C89.493 284.628 89.617 284.163 89.9374 283.667C90.2578 283.171 90.6919 282.964 90.7953 283.068C90.8986 283.171 90.6816 283.564 90.3715 283.988C90.0615 284.411 89.7514 284.773 89.6171 284.701Z" fill="#263238"/>
<path d="M90.6299 285.279C90.4956 285.279 90.5576 284.701 90.878 284.153C91.1984 283.605 91.6015 283.274 91.7151 283.357C91.8288 283.44 91.6325 283.905 91.3431 284.391C91.0537 284.876 90.7746 285.331 90.6299 285.279Z" fill="#263238"/>
<path d="M78.1863 286.292C78.1243 286.292 77.8969 286.106 77.5455 285.713C77.1292 285.209 76.6654 284.745 76.1606 284.329C75.6641 283.932 75.0727 283.672 74.4449 283.574C73.9695 283.512 73.6491 283.574 73.6181 283.512C73.5871 283.45 73.8868 283.233 74.4552 283.192C75.2054 283.176 75.9372 283.425 76.5223 283.894C77.0733 284.338 77.5361 284.882 77.8866 285.496C78.1243 285.951 78.2483 286.251 78.1863 286.292Z" fill="#263238"/>
<path d="M89.6687 283.037C89.7411 283.161 89.4724 283.471 89.0176 283.636C88.5629 283.802 88.1598 283.739 88.1391 283.636C88.1185 283.533 88.4389 283.316 88.8316 283.171C89.2243 283.026 89.5861 282.913 89.6687 283.037Z" fill="#263238"/>
<path d="M89.4413 282.179C89.4413 282.334 89.0279 282.458 88.4905 282.468C87.9531 282.479 87.5397 282.355 87.55 282.21C87.5603 282.065 87.9737 281.931 88.4905 281.92C89.0073 281.91 89.4413 282.034 89.4413 282.179Z" fill="#263238"/>
<path d="M147.712 20.4796C147.298 20.0559 146.275 20.2626 146.275 20.2626C146.378 19.6675 146.378 19.0593 146.275 18.4643C146.089 17.8855 144.787 17.9992 144.787 17.9992C144.727 17.5118 144.727 17.0189 144.787 16.5315C144.797 16.4235 144.774 16.3149 144.72 16.2206C144.667 16.1262 144.585 16.0508 144.487 16.0045C143.871 15.7532 143.209 15.6335 142.544 15.6531C141.748 15.0846 144.973 10.5681 146.172 9.12117C147.371 7.67423 147.153 6.5477 146.089 6.5477C145.355 6.5477 141.593 10.8885 140.436 12.3458C139.278 13.8031 136.208 17.8545 136.105 14.6195C136.002 11.3846 134.699 8.94547 133.883 8.53206C133.067 8.11865 132.198 9.09016 132.643 9.98932C133.033 11.0109 133.277 12.0826 133.366 13.1726C133.479 14.0408 133.44 14.9219 133.253 15.7771C132.91 17.3682 132.443 18.9302 131.857 20.4486H131.775C131.775 20.4486 109.223 42.0803 107.59 43.6203C106.133 45.0052 76.822 41.977 70.9413 41.3569C68.9429 41.0644 66.925 40.9262 64.9054 40.9435C62.3526 41.0571 61.8979 41.4189 59.3554 41.4499C52.9346 41.5212 46.5286 42.0844 40.1938 43.1345C37.3254 43.6222 34.646 44.8883 32.448 46.7947C30.25 48.7011 28.6178 51.1746 27.7295 53.9452C21.8074 72.4453 8.39222 116.236 6.02544 140.834C4.23698 144.077 2.62241 147.413 1.18855 150.828C-0.475431 155.355 -0.0723559 155.51 0.485748 155.613C1.9947 155.892 3.71035 147.769 4.35113 149.732C4.99192 151.696 1.09553 159.417 2.67683 159.644C4.74388 159.933 6.38719 151.376 6.58356 150.694C6.77993 150.011 7.80312 150.229 7.61708 150.869C7.31736 151.779 4.41315 161.422 6.43886 161.732C7.55507 161.897 7.67909 159.861 7.67909 159.861C7.67909 159.861 9.74615 150.632 10.6867 150.818C11.6272 151.004 10.6246 156.45 10.1492 158.269C9.6738 160.088 10.3352 161.008 11.3068 160.564C11.9682 160.254 13.5495 154.724 13.9836 152.926C14.4177 151.128 15.5029 146.146 16.9602 149.03C18.4174 151.913 20.6292 153.587 21.5387 153.629C21.7436 153.605 21.9368 153.521 22.0934 153.386C22.2499 153.252 22.3627 153.074 22.4172 152.875C22.4716 152.676 22.4653 152.465 22.399 152.27C22.3327 152.075 22.2094 151.904 22.0451 151.779C21.2628 151.015 20.5914 150.145 20.0504 149.195C19.5683 148.455 19.2186 147.637 19.0169 146.777C18.6004 145.062 18.358 143.31 18.2934 141.547L18.128 140.513C20.4431 129.052 27.1094 95.4103 36.7315 73.9233L40.6796 82.0468L42.3952 88.0619L31.8739 114.034L76.7497 113.445L70.0524 87.6692L78.1863 60.7975C86.9816 60.9939 109.564 61.3246 113.326 59.6193C118.06 57.5522 142.544 26.6291 142.544 26.6291C144.14 25.389 145.668 24.0641 147.122 22.6604C147.122 22.6604 148.611 21.4098 147.712 20.4796Z" fill="#FFBE9D"/>
<path d="M29.8999 94.8419C31.2022 90.3977 37.8891 68.4249 37.8891 68.4249C37.8891 68.4249 41.1757 86.3359 40.3075 88.496C39.5089 90.3452 38.5655 92.1284 37.486 93.829C29.8999 105.373 30.8921 111.151 30.8921 111.151L76.729 109.756C76.8323 103.348 73.0393 88.4443 72.2538 86.0672C71.4683 83.6901 74.0832 75.9077 74.0832 75.9077C74.0832 75.9077 79.2508 70.647 79.0648 67.9392C78.9666 65.5068 78.6658 63.0869 78.1656 60.7045L106.071 61.738L105.192 42.8245L65.1122 38.8144C63.7169 42.7521 51.0975 40.8194 51.0975 40.8194C37.4757 41.2742 36.6282 43.7753 30.9644 48.1781C25.3007 52.581 15.9266 90.3667 15.9266 90.3667L29.8999 94.8419Z" fill="#4CAF4F"/>
<path d="M56.999 90.3667C56.2046 90.5086 55.3956 90.5503 54.5909 90.4907C53.0923 90.4907 51.0355 90.3873 48.7721 90.16C46.5087 89.9326 44.4623 89.6122 43.005 89.3228C42.2015 89.2193 41.4136 89.018 40.6589 88.7234C41.467 88.7237 42.2732 88.7998 43.0671 88.9508C44.5347 89.1368 46.5707 89.3952 48.8238 89.6225C51.0769 89.8499 53.1233 90.005 54.6012 90.1083C55.4068 90.1185 56.2097 90.205 56.999 90.3667Z" fill="#263238"/>
<path d="M60.1409 86.4703C59.3463 86.8596 58.506 87.1477 57.6397 87.3281C53.5163 88.4116 49.2622 88.916 44.9997 88.8267C44.1177 88.8555 43.2356 88.7721 42.3746 88.5787C43.2451 88.4687 44.1225 88.4239 44.9997 88.4443C46.6224 88.3927 48.8548 88.279 51.3146 87.9896C53.7744 87.7002 55.9654 87.2868 57.5157 86.9561C58.3768 86.7261 59.2545 86.5637 60.1409 86.4703Z" fill="#263238"/>
<path d="M75.5611 69.0864C75.5402 69.8744 75.4328 70.6576 75.2407 71.4221C74.972 72.8587 74.5586 74.8225 74.0315 76.9722C73.5044 79.1219 72.998 81.1063 72.5432 82.4499C72.3604 83.219 72.0899 83.9645 71.7371 84.6719C71.7946 83.8864 71.9402 83.1099 72.1711 82.3569C72.5639 80.7446 73.0083 78.8842 73.5044 76.8482C74.0005 74.8121 74.4759 72.9518 74.8686 71.3395C75.0085 70.5634 75.241 69.807 75.5611 69.0864Z" fill="#263238"/>
<path d="M30.3857 92.2064C27.9946 91.8371 25.6349 91.2878 23.3267 90.5631C20.968 90.0116 18.6535 89.2861 16.402 88.3926C18.7919 88.7679 21.1512 89.3171 23.461 90.036C25.8202 90.5855 28.1349 91.311 30.3857 92.2064Z" fill="#263238"/>
<path d="M78.6617 60.4771C78.2718 60.5442 77.8733 60.5442 77.4835 60.4771C76.4039 60.3664 75.3439 60.1127 74.3312 59.7226C72.6405 59.0873 71.1013 58.1053 69.8127 56.8398C68.524 55.5743 67.5143 54.0532 66.8485 52.3743C66.1125 50.5273 65.7983 48.5394 65.9287 46.5555C65.9747 44.9192 66.4641 43.326 67.3446 41.946C67.9639 41.0163 68.8889 40.3326 69.9594 40.0133C70.2454 39.9344 70.5412 39.8961 70.8379 39.8996C71.0446 39.8996 71.148 39.8996 71.148 39.8996C71.148 39.8996 70.7139 39.8996 70.0214 40.1786C69.0394 40.5414 68.2064 41.2216 67.6546 42.1113C66.249 44.3231 65.8563 48.3642 67.3549 52.1365C68.0524 53.9152 69.1443 55.5125 70.5485 56.8081C71.6991 57.8682 73.0243 58.7214 74.4656 59.3299C75.8182 59.8644 77.2253 60.2491 78.6617 60.4771Z" fill="#263238"/>
<path d="M102.753 61.3659C102.495 58.1966 102.412 55.0153 102.505 51.8368C102.424 48.661 102.521 45.4831 102.795 42.318C103.053 45.4839 103.136 48.6617 103.043 51.8368C103.129 55.0161 103.033 58.1978 102.753 61.3659Z" fill="#263238"/>
<path d="M64.8434 39.9719C64.9571 37.6672 65.1948 35.0627 65.1948 35.0627C65.1948 35.0627 70.8999 34.4322 71.2409 28.5411C71.582 22.65 71.2409 9.05916 71.2409 9.05916L60.9057 3.76751L49.4335 12.7902L51.2009 42.2457L61.7222 42.9175C62.5264 42.9397 63.3066 42.6422 63.8917 42.09C64.4769 41.5378 64.8191 40.7761 64.8434 39.9719Z" fill="#FFBE9D"/>
<path d="M65.8666 23.8799C65.8666 23.8799 65.8667 23.9936 65.7736 24.128C65.6967 24.2254 65.5973 24.3027 65.4838 24.3531C65.3704 24.4035 65.2464 24.4256 65.1225 24.4174C64.4611 24.4174 63.8203 23.6525 63.5929 22.7637C63.4848 22.3329 63.4848 21.882 63.5929 21.4511C63.6141 21.2631 63.6819 21.0833 63.7902 20.9281C63.8985 20.7729 64.0438 20.6471 64.213 20.5623C64.352 20.5049 64.5081 20.5049 64.6471 20.5623C64.7501 20.6135 64.8336 20.697 64.8848 20.8C64.9571 20.9757 64.8848 21.0894 64.8848 21.0791C64.8848 21.0687 64.8848 20.9757 64.7814 20.8724C64.7274 20.7983 64.648 20.7469 64.5583 20.7278C64.4687 20.7087 64.3752 20.7234 64.2957 20.769C64.1689 20.8457 64.0636 20.9531 63.9895 21.0814C63.9154 21.2097 63.875 21.3547 63.8719 21.5028C63.7849 21.8872 63.7849 22.2863 63.8719 22.6707C64.0786 23.4768 64.6367 24.128 65.1328 24.19C65.2299 24.2031 65.3286 24.1962 65.4229 24.1695C65.5171 24.1428 65.6048 24.097 65.6806 24.035C65.8046 23.9523 65.846 23.8696 65.8666 23.8799Z" fill="#EB996E"/>
<path d="M74.786 5.8759C73.9902 3.16806 71.1066 1.82447 68.4815 1.08034C64.4817 -0.0565439 60.1616 -0.552639 56.2549 0.883963C52.3481 2.32056 47.6559 4.84237 47.6559 9.15217C45.3512 8.96614 44.0282 10.9815 43.1187 13.4827C42.5372 15.0064 42.1888 16.6092 42.0852 18.2369C41.7958 23.8799 40.2145 31.6727 36.5558 35.8068C34.4888 38.1116 31.6259 39.7032 30.4477 42.5764C29.4142 45.0672 29.9516 48.0231 28.9904 50.5449C28.1326 52.767 26.2412 54.3483 24.8563 56.281C23.4454 58.4735 22.615 60.9887 22.4433 63.5903C22.2715 66.1919 22.764 68.7945 23.8745 71.1534C24.9929 73.4519 26.5676 75.4986 28.5026 77.1689C30.4376 78.8391 32.6924 80.0979 35.1296 80.8686C39.9572 82.3373 45.1053 82.3876 49.9607 81.0133C53.6046 80.142 57.0039 78.4565 59.9032 76.0834C62.8698 73.6608 64.9073 70.2869 65.6703 66.5336C66.4041 62.3168 65.2259 58.0277 64.3474 53.8315C61.5982 40.5714 62.3837 39.8789 65.8563 27.5696C65.939 27.3526 65.9803 27.1252 66.0424 26.9082C66.1044 26.6911 66.1354 26.5878 66.1767 26.4224C66.2754 25.9358 66.3273 25.4409 66.3317 24.9445C65.8245 25.1331 65.274 25.173 64.7449 25.0595C64.2158 24.946 63.7301 24.6838 63.3448 24.3037C62.9587 23.8984 62.6895 23.3962 62.5658 22.8503C62.4421 22.3044 62.4684 21.7352 62.6421 21.2031C62.8859 20.6211 63.2492 20.0968 63.7086 19.6642C64.1679 19.2316 64.713 18.9002 65.3085 18.6916C66.4558 18.2162 67.6856 17.9682 68.8122 17.4411C71.1996 16.3042 72.8533 13.9477 73.9798 11.4776C74.906 9.76561 75.1918 7.77959 74.786 5.8759Z" fill="#263238"/>
<path d="M66.28 24.159C66.4984 24.4816 66.6788 24.8284 66.8175 25.1925C67.1275 25.8436 67.5409 26.7635 67.9957 27.828L68.0784 28.0244H67.8613L66.8278 28.1174C66.1147 28.1174 65.5152 28.2517 64.8124 28.2414C64.7512 28.2276 64.6945 28.1986 64.6475 28.1571C64.6005 28.1155 64.5648 28.0628 64.5437 28.0037C64.5129 27.9097 64.5129 27.8083 64.5437 27.7143C64.5676 27.575 64.5987 27.437 64.6367 27.3009L64.8228 26.5671C64.9162 26.0776 65.0618 25.5994 65.2568 25.1408C65.2376 25.6398 65.1648 26.1353 65.0398 26.6188L64.8951 27.3526C64.8434 27.6006 64.7504 27.983 64.8951 27.952C65.4119 27.952 66.1457 27.8383 66.8278 27.797L67.8613 27.704L67.727 27.9313C67.2826 26.8978 66.9105 25.9263 66.6934 25.2545C66.5031 24.9114 66.3638 24.5423 66.28 24.159Z" fill="#4CAF4F"/>
<path d="M30.8921 111.151L76.729 109.756L96.6761 187.622L93.0071 276.939H68.7709L71.7371 189.523L54.0121 135.315L56.7406 280.401L32.246 280.763L29.6726 144.389C29.5589 140.596 28.3186 132.049 28.7837 128.287L30.8921 111.151Z" fill="#263238"/>
<path d="M60.1099 136.421C59.3596 136.468 58.6064 136.423 57.8671 136.286C56.4822 136.121 54.5909 135.832 52.5135 135.418C50.4361 135.005 48.5757 134.529 47.2322 134.147C46.5139 133.989 45.8191 133.739 45.1651 133.403C45.1651 133.248 48.5344 134.054 52.6685 134.891C56.8026 135.728 60.1306 136.266 60.1099 136.421Z" fill="#455A64"/>
<path d="M92.759 272.04C92.759 272.185 87.271 272.309 80.5014 272.309C73.7318 272.309 68.2334 272.185 68.2334 272.04C68.2334 271.895 73.7214 271.771 80.5014 271.771C87.2813 271.771 92.759 271.885 92.759 272.04Z" fill="#455A64"/>
<path d="M56.5235 276.629C56.5235 276.784 51.1906 276.898 44.6173 276.898C38.0441 276.898 32.7214 276.784 32.7214 276.629C32.7214 276.474 38.0544 276.36 44.6173 276.36C51.1802 276.36 56.5235 276.484 56.5235 276.629Z" fill="#455A64"/>
<path d="M53.3609 276.257C53.2163 276.257 52.5755 244.559 51.9243 205.46C51.2732 166.362 50.8908 134.643 51.0252 134.643C51.1595 134.643 51.821 166.331 52.4618 205.45C53.1026 244.569 53.516 276.257 53.3609 276.257Z" fill="#455A64"/>
<path d="M89.5034 272.04C89.492 271.899 89.492 271.757 89.5034 271.616V270.376C89.5034 269.26 89.5861 267.658 89.6481 265.622C89.7928 261.488 89.9995 255.483 90.2578 248.124C90.8159 233.324 91.6014 212.922 92.4593 190.402C92.4593 190.185 92.4593 189.978 92.4593 189.792V189.864C87.0332 168.16 82.124 148.461 78.5583 134.209L74.4242 117.352C73.9488 115.378 73.5871 113.838 73.3287 112.763C73.2047 112.257 73.122 111.864 73.0496 111.564C73.0094 111.43 72.9851 111.291 72.9773 111.151C73.031 111.281 73.0725 111.416 73.1013 111.554C73.184 111.843 73.2873 112.236 73.432 112.732C73.7111 113.766 74.1142 115.337 74.6309 117.3C75.6645 121.29 77.1217 127.036 78.9407 134.116C82.5374 148.358 87.4983 168.005 92.9967 189.74V189.813C92.9967 189.999 92.9967 190.216 92.9967 190.422C92.0769 212.943 91.2397 233.334 90.6299 248.134C90.3095 255.504 90.0408 261.467 89.8548 265.622C89.7514 267.689 89.6687 269.26 89.6171 270.376C89.6171 270.903 89.5551 271.317 89.5447 271.616C89.5463 271.759 89.5324 271.901 89.5034 272.04Z" fill="#455A64"/>
<path d="M81.5969 187.973C79.8561 188.545 78.0627 188.943 76.2432 189.161C74.0108 189.544 72.1091 189.813 71.2513 189.854V189.647C71.5304 189.73 71.675 189.782 71.675 189.823C71.675 189.864 71.4994 189.823 71.21 189.823H70.5898L71.21 189.637C72.0161 189.399 73.9178 189.006 76.1502 188.603C77.9407 188.215 79.7651 188.004 81.5969 187.973Z" fill="#455A64"/>
<path d="M81.1732 190.939C79.5611 191.013 77.9456 190.94 76.3466 190.722C74.7322 190.689 73.1239 190.513 71.5407 190.195C74.7707 189.931 78.022 190.183 81.1732 190.939Z" fill="#455A64"/>
<path opacity="0.2" d="M30.6957 112.794C31.2386 113.491 31.9223 114.066 32.7024 114.481C33.4824 114.896 34.3411 115.142 35.2226 115.202C37.0686 115.421 38.936 115.386 40.7726 115.099C52.6065 113.786 65.1432 112.577 76.729 109.756C61.7325 110.593 45.8886 110.314 30.8921 111.151L30.7371 112.432" fill="black"/>
<g opacity="0.2">
<path d="M46.147 133.93L54.6012 166.734L54.0121 135.315L46.147 133.93Z" fill="black"/>
</g>
</svg>
