<svg width="157" height="345" viewBox="0 0 157 345" fill="none" xmlns="http://www.w3.org/2000/svg">
<path d="M125.615 304.26L22.376 303.785C16.4141 303.752 10.7089 301.354 6.51345 297.118C2.31803 292.882 -0.0245443 287.154 0.000193957 281.192L1.09573 22.3865C1.10791 19.4327 1.70211 16.5103 2.84436 13.7863C3.98662 11.0623 5.65454 8.59015 7.75276 6.51113C9.85098 4.43211 12.3384 2.78698 15.0728 1.66981C17.8071 0.552639 20.7349 -0.0146754 23.6886 0.000288483L126.917 0.47571C132.879 0.505794 138.585 2.90094 142.783 7.13511C146.98 11.3693 149.325 17.0963 149.303 23.0583L148.208 281.853C148.196 284.808 147.602 287.731 146.46 290.457C145.318 293.182 143.65 295.655 141.552 297.736C139.454 299.817 136.967 301.464 134.232 302.583C131.498 303.703 128.57 304.272 125.615 304.26Z" fill="#455A64"/>
<path d="M126.762 9.37438H106.753C106.1 9.38648 105.456 9.52709 104.858 9.78816C104.259 10.0492 103.718 10.4257 103.265 10.896C102.812 11.3662 102.456 11.9212 102.217 12.529C101.979 13.1369 101.863 13.7858 101.875 14.4387V18.0663C101.887 18.7187 101.771 19.3671 101.532 19.9744C101.293 20.5816 100.937 21.1359 100.484 21.6053C100.031 22.0748 99.4898 22.4503 98.8914 22.7102C98.2929 22.9702 97.6491 23.1095 96.9967 23.1203L57.9914 22.9446C56.6719 22.9094 55.4202 22.352 54.5114 21.3947C53.6026 20.4374 53.1108 19.1585 53.1441 17.839V14.2113C53.1775 12.8935 52.6872 11.6161 51.7805 10.6591C50.8739 9.70215 49.6249 9.14353 48.3072 9.10566H41.2689L23.7506 9.02298C19.5839 8.99818 15.577 10.6255 12.6075 13.5485C9.63792 16.4716 7.94762 20.4523 7.90668 24.6189L6.87315 277.233C6.86363 279.301 7.26134 281.349 8.0436 283.263C8.82585 285.176 9.97733 286.917 11.4323 288.385C12.8872 289.853 14.6171 291.021 16.5232 291.821C18.4293 292.62 20.4743 293.037 22.5414 293.046L125.563 293.522C127.632 293.531 129.682 293.133 131.597 292.351C133.511 291.568 135.253 290.416 136.722 288.96C138.192 287.504 139.36 285.773 140.16 283.865C140.96 281.958 141.377 279.912 141.387 277.843L142.42 25.2287C142.445 21.0503 140.809 17.0331 137.873 14.0601C134.937 11.0871 130.941 9.40171 126.762 9.37438Z" fill="white"/>
<path d="M112.903 259.819L36.2976 259.488C35.5018 259.488 34.861 258.62 34.8713 257.565L34.954 237.525C34.954 236.492 35.6052 235.603 36.401 235.603L113.006 235.954C113.447 236.031 113.841 236.274 114.107 236.634C114.373 236.994 114.489 237.443 114.432 237.887L114.36 257.906C114.36 258.971 113.698 259.829 112.903 259.819Z" fill="#4CAF4F"/>
<path d="M59.5885 249.606C59.1656 249.606 58.7591 249.538 58.3688 249.403C57.9839 249.262 57.6857 249.083 57.4743 248.866L57.7101 248.403C57.9107 248.598 58.179 248.763 58.5151 248.899C58.8567 249.029 59.2144 249.094 59.5885 249.094C59.9462 249.094 60.2363 249.05 60.4585 248.964C60.6862 248.871 60.8515 248.749 60.9545 248.598C61.0629 248.446 61.1172 248.278 61.1172 248.094C61.1172 247.871 61.0521 247.692 60.922 247.557C60.7973 247.421 60.632 247.316 60.426 247.24C60.22 247.158 59.9923 247.088 59.743 247.028C59.4936 246.969 59.2442 246.906 58.9949 246.841C58.7455 246.771 58.5151 246.679 58.3037 246.565C58.0977 246.451 57.9297 246.302 57.7996 246.118C57.6749 245.928 57.6126 245.681 57.6126 245.378C57.6126 245.096 57.6857 244.838 57.8321 244.605C57.9839 244.367 58.2143 244.177 58.5233 244.036C58.8323 243.89 59.228 243.816 59.7104 243.816C60.0303 243.816 60.3474 243.863 60.6618 243.955C60.9762 244.041 61.2473 244.163 61.4749 244.321L61.2716 244.8C61.0277 244.638 60.7675 244.518 60.491 244.443C60.22 244.367 59.9571 244.329 59.7023 244.329C59.3608 244.329 59.0789 244.375 58.8567 244.467C58.6344 244.559 58.4691 244.684 58.3606 244.841C58.2576 244.993 58.2061 245.166 58.2061 245.361C58.2061 245.584 58.2685 245.763 58.3932 245.898C58.5233 246.034 58.6913 246.139 58.8973 246.215C59.1087 246.291 59.3391 246.359 59.5885 246.418C59.8378 246.478 60.0845 246.543 60.3284 246.614C60.5778 246.684 60.8055 246.776 61.0114 246.89C61.2229 246.999 61.3909 247.145 61.5156 247.329C61.6457 247.513 61.7107 247.755 61.7107 248.053C61.7107 248.329 61.6348 248.587 61.4831 248.825C61.3313 249.058 61.0982 249.248 60.7838 249.395C60.4748 249.535 60.0763 249.606 59.5885 249.606ZM63.0218 249.557V243.865H63.6235V249.557H63.0218ZM65.4755 249.557V243.865H65.9715L69.8989 248.809H69.6387V243.865H70.2323V249.557H69.7363L65.817 244.613H66.0772V249.557H65.4755ZM74.5864 249.606C74.1527 249.606 73.7516 249.535 73.3829 249.395C73.0197 249.248 72.7026 249.045 72.4316 248.785C72.166 248.524 71.9573 248.218 71.8055 247.866C71.6591 247.513 71.5859 247.129 71.5859 246.711C71.5859 246.294 71.6591 245.909 71.8055 245.557C71.9573 245.204 72.1687 244.898 72.4397 244.638C72.7108 244.378 73.0279 244.177 73.3911 244.036C73.7597 243.89 74.1608 243.816 74.5945 243.816C75.0282 243.816 75.4239 243.884 75.7817 244.02C76.1449 244.155 76.4539 244.361 76.7086 244.638L76.3346 245.02C76.0961 244.781 75.8332 244.611 75.5459 244.508C75.2586 244.405 74.9496 244.353 74.6189 244.353C74.2665 244.353 73.9413 244.413 73.6431 244.532C73.3504 244.646 73.0929 244.811 72.8707 245.028C72.6538 245.239 72.4831 245.489 72.3584 245.776C72.2391 246.058 72.1795 246.37 72.1795 246.711C72.1795 247.047 72.2391 247.359 72.3584 247.646C72.4831 247.934 72.6538 248.186 72.8707 248.403C73.0929 248.614 73.3504 248.779 73.6431 248.899C73.9413 249.012 74.2638 249.069 74.6108 249.069C74.936 249.069 75.2423 249.02 75.5296 248.923C75.8223 248.825 76.0907 248.66 76.3346 248.427L76.6761 248.882C76.4051 249.121 76.0879 249.302 75.7248 249.427C75.3616 249.546 74.9821 249.606 74.5864 249.606ZM76.0988 248.809V246.711H76.6761V248.882L76.0988 248.809ZM82.8002 249.606C82.0738 249.606 81.5019 249.397 81.0845 248.98C80.6671 248.562 80.4584 247.944 80.4584 247.126V243.865H81.0601V247.102C81.0601 247.774 81.2119 248.27 81.5155 248.59C81.8191 248.909 82.2473 249.069 82.8002 249.069C83.3586 249.069 83.7895 248.909 84.0931 248.59C84.3967 248.27 84.5485 247.774 84.5485 247.102V243.865H85.1339V247.126C85.1339 247.944 84.9252 248.562 84.5078 248.98C84.0958 249.397 83.5266 249.606 82.8002 249.606ZM86.9471 249.557V243.865H89.0775C89.56 243.865 89.9747 243.944 90.3216 244.101C90.6686 244.253 90.9342 244.475 91.1185 244.768C91.3082 245.055 91.4031 245.405 91.4031 245.817C91.4031 246.218 91.3082 246.565 91.1185 246.858C90.9342 247.145 90.6686 247.367 90.3216 247.524C89.9747 247.682 89.56 247.76 89.0775 247.76H87.2805L87.5489 247.476V249.557H86.9471ZM87.5489 247.524L87.2805 247.232H89.0613C89.6305 247.232 90.0614 247.11 90.3541 246.866C90.6523 246.616 90.8014 246.267 90.8014 245.817C90.8014 245.361 90.6523 245.009 90.3541 244.76C90.0614 244.51 89.6305 244.386 89.0613 244.386H87.2805L87.5489 244.101V247.524Z" fill="#E8E8E3"/>
<path d="M51.5774 83.6335L24.9954 83.5128L24.9732 88.391L51.5553 88.5117L51.5774 83.6335Z" fill="#4CAF4F"/>
<path opacity="0.1" d="M51.5774 83.6335L24.9954 83.5128L24.9732 88.391L51.5553 88.5117L51.5774 83.6335Z" fill="black"/>
<path d="M129.501 113.585C129.71 113.564 129.915 113.515 130.111 113.44C130.397 113.328 130.646 113.138 130.828 112.891C131.011 112.644 131.121 112.351 131.144 112.045C131.144 110.402 131.144 108.004 131.144 104.924C131.144 103.384 131.144 101.658 131.144 99.7563C131.144 99.2912 131.144 98.8054 131.144 98.3197C131.212 97.8483 131.109 97.3684 130.855 96.9657C130.713 96.7727 130.528 96.6153 130.314 96.5059C130.101 96.3965 129.865 96.3381 129.625 96.3353H128.013H113.078L26.6342 96.0149C26.4129 96.0111 26.194 96.0609 25.9961 96.1598C25.7981 96.2588 25.627 96.4041 25.4973 96.5834C25.2477 96.9876 25.1523 97.4683 25.2286 97.9373C25.2286 98.9708 25.2286 100.004 25.2286 101.038C25.2286 103.105 25.2286 105.172 25.2286 107.239C25.2286 108.273 25.2286 109.306 25.2286 110.34C25.1857 110.821 25.1857 111.305 25.2286 111.787C25.2829 111.993 25.3838 112.184 25.5235 112.345C25.6633 112.507 25.8382 112.634 26.0347 112.717C26.2384 112.798 26.4564 112.836 26.6755 112.83H31.9362L54.8908 112.954L93.7514 113.192L119.951 113.399L127.072 113.481H128.922C129.346 113.481 129.553 113.481 129.553 113.481H128.922H127.072H119.951H93.7514L54.8908 113.357L31.9362 113.264H26.6755C26.386 113.276 26.0972 113.227 25.828 113.12C25.5559 113.004 25.3139 112.827 25.1204 112.603C24.927 112.379 24.7872 112.114 24.7118 111.828C24.652 111.557 24.6311 111.278 24.6498 111.001V110.236C24.6498 109.203 24.6498 108.169 24.6498 107.136C24.6498 105.069 24.6498 103.002 24.6498 100.934C24.6498 99.901 24.6498 98.8674 24.6498 97.8339C24.6301 97.5587 24.6301 97.2823 24.6498 97.0071C24.6885 96.7031 24.8061 96.4145 24.9909 96.1699C25.1692 95.9205 25.4051 95.7178 25.6787 95.5792C25.9522 95.4406 26.2552 95.3703 26.5618 95.3741L113.006 95.8495L127.94 95.9529H129.553C129.837 95.9531 130.117 96.0218 130.368 96.1531C130.62 96.2845 130.837 96.4746 131 96.7074C131.291 97.1567 131.409 97.6969 131.33 98.2267C131.33 98.7124 131.33 99.1982 131.33 99.6633C131.33 101.544 131.33 103.27 131.33 104.831C131.33 107.931 131.258 110.309 131.237 111.962C131.212 112.28 131.097 112.584 130.904 112.839C130.712 113.093 130.451 113.288 130.152 113.399C129.957 113.52 129.731 113.584 129.501 113.585Z" fill="#E0E0E0"/>
<path d="M81.5971 101.203H32.98V105.761H81.5971V101.203Z" fill="#4CAF4F"/>
<path opacity="0.2" d="M81.5971 101.203H32.98V105.761H81.5971V101.203Z" fill="white"/>
<path d="M51.3961 128.136L24.8141 128.015L24.792 132.893L51.374 133.014L51.3961 128.136Z" fill="#4CAF4F"/>
<path opacity="0.1" d="M51.3961 128.136L24.8141 128.015L24.792 132.893L51.374 133.014L51.3961 128.136Z" fill="black"/>
<path d="M128.829 158.088C129.038 158.063 129.245 158.025 129.449 157.975C129.738 157.883 130.004 157.73 130.228 157.527C130.453 157.324 130.631 157.075 130.752 156.797C130.914 156.379 130.978 155.93 130.938 155.484C130.938 154.988 130.938 154.45 130.938 153.851C130.938 152.652 130.938 151.288 130.938 149.717V143.154C130.987 142.679 130.882 142.2 130.638 141.79C130.383 141.369 129.982 141.056 129.511 140.911C128.997 140.819 128.472 140.792 127.951 140.829H113.078L26.9339 140.508C26.4706 140.509 26.0234 140.679 25.6755 140.985C25.3276 141.291 25.1027 141.713 25.0426 142.172C25.0426 143.154 25.0426 144.239 25.0426 145.273C25.0426 147.34 25.0426 149.407 25.0426 151.474C25.0426 152.507 25.0426 153.541 25.0426 154.575C25.0041 155.058 25.0249 155.543 25.1046 156.021C25.2336 156.441 25.4992 156.804 25.8591 157.055C26.2408 157.297 26.6893 157.413 27.1406 157.386H28.5772H31.5641L54.4361 157.499L93.1623 157.737L119.269 157.944L126.37 158.026H119.269H93.1623L54.4154 157.985L31.5434 157.902H27.0476C26.4886 157.936 25.9339 157.787 25.4663 157.479C24.996 157.153 24.6528 156.675 24.4948 156.125C24.4022 155.6 24.3744 155.065 24.4121 154.533C24.4121 153.5 24.4121 152.466 24.4121 151.433C24.4121 149.366 24.4121 147.298 24.4121 145.231C24.4121 144.198 24.4121 143.164 24.4121 142.131C24.4875 141.54 24.7757 140.997 25.2228 140.603C25.6699 140.209 26.2451 139.992 26.8409 139.991L112.985 140.467L127.858 140.581C128.412 140.547 128.967 140.585 129.511 140.694C130.048 140.87 130.501 141.238 130.783 141.728C131.05 142.183 131.166 142.711 131.113 143.237C131.113 143.722 131.113 144.198 131.113 144.673C131.113 146.544 131.113 148.26 131.113 149.841C131.113 151.422 131.113 152.756 131.113 153.975C131.113 154.564 131.113 155.112 131.113 155.618C131.151 156.081 131.077 156.545 130.896 156.972C130.762 157.257 130.568 157.51 130.327 157.714C130.087 157.917 129.805 158.066 129.501 158.151C129.275 158.169 129.048 158.148 128.829 158.088Z" fill="#E0E0E0"/>
<path d="M51.1958 174.571L24.6138 174.45L24.5916 179.328L51.1737 179.449L51.1958 174.571Z" fill="#4CAF4F"/>
<path opacity="0.1" d="M51.1958 174.571L24.6138 174.45L24.5916 179.328L51.1737 179.449L51.1958 174.571Z" fill="black"/>
<path d="M128.623 204.504C128.831 204.48 129.039 204.442 129.243 204.39C129.53 204.299 129.795 204.148 130.019 203.946C130.244 203.745 130.423 203.498 130.545 203.223C130.707 202.805 130.771 202.356 130.731 201.91C130.731 201.404 130.731 200.877 130.731 200.267C130.731 199.078 130.731 197.704 130.731 196.133V189.57C130.78 189.095 130.675 188.616 130.431 188.205C130.17 187.792 129.771 187.484 129.305 187.337C128.79 187.242 128.266 187.211 127.744 187.244H112.872L26.7272 186.924C26.2638 186.925 25.8166 187.094 25.4687 187.4C25.1209 187.706 24.896 188.128 24.8359 188.588C24.8359 189.621 24.8359 190.655 24.8359 191.688C24.8359 193.755 24.8359 195.823 24.8359 197.89C24.8359 198.923 24.8359 199.957 24.8359 200.99C24.7974 201.47 24.8182 201.952 24.8979 202.427C25.0216 202.848 25.2884 203.214 25.6523 203.46C26.0317 203.708 26.482 203.824 26.9339 203.791H31.4297L54.3017 203.915L93.0279 204.153L119.135 204.359L126.235 204.442H119.135H93.0279L54.3017 204.328L31.4297 204.235H26.9339C26.3744 204.273 25.8183 204.124 25.3526 203.812C24.8823 203.486 24.5391 203.008 24.3811 202.458C24.2885 201.933 24.2607 201.398 24.2984 200.866C24.2984 199.833 24.2984 198.799 24.2984 197.766C24.2984 195.699 24.2984 193.631 24.2984 191.564C24.2984 190.531 24.2984 189.497 24.2984 188.412C24.3715 187.822 24.6576 187.279 25.103 186.885C25.5483 186.491 26.1222 186.273 26.7169 186.273L112.861 186.748L127.734 186.862C128.288 186.828 128.843 186.866 129.387 186.976C129.924 187.151 130.377 187.519 130.659 188.009C130.926 188.464 131.042 188.993 130.989 189.518C130.989 190.004 130.989 190.49 130.989 190.955C130.989 192.825 130.989 194.541 130.989 196.122C130.989 197.704 130.989 199.037 130.989 200.256C130.989 200.845 130.989 201.393 130.989 201.9C131.029 202.362 130.954 202.827 130.772 203.254C130.638 203.539 130.444 203.792 130.203 203.995C129.963 204.198 129.681 204.347 129.377 204.432C129.135 204.515 128.876 204.54 128.623 204.504Z" fill="#E0E0E0"/>
<path d="M80.5593 146.995L31.9427 146.775L31.922 151.333L80.5386 151.553L80.5593 146.995Z" fill="#4CAF4F"/>
<path opacity="0.2" d="M80.5593 146.995L31.9427 146.775L31.922 151.333L80.5386 151.553L80.5593 146.995Z" fill="white"/>
<path d="M36.339 196.071C36.3085 196.486 36.1566 196.884 35.9022 197.214C35.6478 197.544 35.3021 197.793 34.9079 197.928C34.5137 198.064 34.0883 198.081 33.6847 197.977C33.281 197.873 32.9167 197.652 32.637 197.343C32.3573 197.034 32.1745 196.65 32.1112 196.238C32.0479 195.826 32.107 195.404 32.2811 195.026C32.4552 194.647 32.7367 194.328 33.0906 194.107C33.4444 193.887 33.8552 193.775 34.2719 193.786C34.8477 193.819 35.3876 194.076 35.7746 194.504C36.1616 194.932 36.3643 195.494 36.339 196.071Z" fill="#4CAF4F"/>
<path d="M42.9225 196.102C42.9429 196.393 42.903 196.685 42.8055 196.961C42.708 197.236 42.5548 197.488 42.3556 197.702C42.1564 197.916 41.9154 198.086 41.6475 198.202C41.3797 198.319 41.0907 198.379 40.7986 198.379C40.5065 198.379 40.2176 198.319 39.9497 198.202C39.6818 198.086 39.4408 197.916 39.2416 197.702C39.0424 197.488 38.8893 197.236 38.7917 196.961C38.6942 196.685 38.6544 196.393 38.6747 196.102C38.6544 195.81 38.6942 195.518 38.7917 195.242C38.8893 194.967 39.0424 194.715 39.2416 194.501C39.4408 194.288 39.6818 194.117 39.9497 194.001C40.2176 193.884 40.5065 193.824 40.7986 193.824C41.0907 193.824 41.3797 193.884 41.6475 194.001C41.9154 194.117 42.1564 194.288 42.3556 194.501C42.5548 194.715 42.708 194.967 42.8055 195.242C42.903 195.518 42.9429 195.81 42.9225 196.102Z" fill="#4CAF4F"/>
<path d="M49.5165 196.133C49.486 196.548 49.3341 196.946 49.0797 197.276C48.8253 197.606 48.4796 197.855 48.0854 197.99C47.6912 198.126 47.2658 198.143 46.8622 198.039C46.4585 197.935 46.0942 197.715 45.8145 197.405C45.5348 197.096 45.352 196.712 45.2887 196.3C45.2254 195.888 45.2845 195.466 45.4586 195.088C45.6327 194.709 45.9141 194.39 46.268 194.169C46.6219 193.949 47.0327 193.837 47.4494 193.848C48.0242 193.883 48.5626 194.142 48.949 194.569C49.3354 194.996 49.5391 195.557 49.5165 196.133Z" fill="#4CAF4F"/>
<path d="M56.1 196.164C56.0695 196.579 55.9176 196.977 55.6632 197.307C55.4088 197.637 55.0631 197.886 54.6689 198.021C54.2747 198.157 53.8494 198.174 53.4457 198.07C53.042 197.966 52.6778 197.746 52.3981 197.436C52.1184 197.127 51.9355 196.743 51.8723 196.331C51.809 195.919 51.8681 195.497 52.0422 195.119C52.2163 194.74 52.4977 194.421 52.8516 194.2C53.2055 193.98 53.6163 193.868 54.033 193.879C54.6078 193.914 55.1461 194.173 55.5326 194.6C55.919 195.027 56.1227 195.588 56.1 196.164Z" fill="#4CAF4F"/>
<path d="M62.6836 196.184C62.6551 196.601 62.5048 196.999 62.2515 197.331C61.9982 197.663 61.653 197.913 61.2589 198.05C60.8647 198.187 60.439 198.205 60.0345 198.102C59.6301 197.999 59.2648 197.78 58.9841 197.471C58.7034 197.162 58.5196 196.778 58.4556 196.365C58.3916 195.953 58.4502 195.531 58.6241 195.152C58.7981 194.772 59.0796 194.452 59.4339 194.232C59.7881 194.011 60.1994 193.899 60.6165 193.911C61.1895 193.945 61.7263 194.202 62.1124 194.627C62.4985 195.052 62.7035 195.611 62.6836 196.184Z" fill="#4CAF4F"/>
<path d="M69.2775 196.215C69.2493 196.629 69.1006 197.026 68.8497 197.357C68.5988 197.688 68.2567 197.938 67.8655 198.077C67.4743 198.216 67.051 198.237 66.6477 198.139C66.2444 198.04 65.8788 197.826 65.5957 197.522C65.3127 197.218 65.1246 196.838 65.0547 196.429C64.9848 196.02 65.036 195.599 65.2021 195.219C65.3682 194.838 65.6419 194.515 65.9896 194.288C66.3372 194.061 66.7436 193.94 67.1588 193.942C67.7409 193.963 68.2908 194.214 68.6879 194.641C69.085 195.067 69.2971 195.633 69.2775 196.215Z" fill="#4CAF4F"/>
<path d="M75.861 196.246C75.8814 196.538 75.8415 196.83 75.744 197.105C75.6465 197.381 75.4934 197.633 75.2942 197.847C75.0949 198.06 74.8539 198.231 74.586 198.347C74.3182 198.464 74.0292 198.524 73.7372 198.524C73.4451 198.524 73.1561 198.464 72.8882 198.347C72.6204 198.231 72.3794 198.06 72.1801 197.847C71.9809 197.633 71.8278 197.381 71.7303 197.105C71.6328 196.83 71.5929 196.538 71.6133 196.246C71.5929 195.955 71.6328 195.662 71.7303 195.387C71.8278 195.112 71.9809 194.86 72.1801 194.646C72.3794 194.432 72.6204 194.262 72.8882 194.146C73.1561 194.029 73.4451 193.969 73.7372 193.969C74.0292 193.969 74.3182 194.029 74.586 194.146C74.8539 194.262 75.0949 194.432 75.2942 194.646C75.4934 194.86 75.6465 195.112 75.744 195.387C75.8415 195.662 75.8814 195.955 75.861 196.246Z" fill="#4CAF4F"/>
<path d="M82.4446 196.277C82.4164 196.691 82.2677 197.088 82.0168 197.419C81.7659 197.75 81.4238 198 81.0326 198.139C80.6413 198.278 80.218 198.299 79.8148 198.201C79.4115 198.102 79.0458 197.888 78.7628 197.584C78.4798 197.28 78.2918 196.9 78.2218 196.491C78.1519 196.082 78.2031 195.661 78.3692 195.281C78.5353 194.9 78.809 194.577 79.1567 194.35C79.5043 194.123 79.9107 194.003 80.3259 194.004C80.908 194.025 81.4579 194.277 81.855 194.703C82.2521 195.129 82.4641 195.695 82.4446 196.277Z" fill="#4CAF4F"/>
<path d="M89.0282 196.308C88.9997 196.725 88.8494 197.123 88.5961 197.455C88.3428 197.787 87.9977 198.037 87.6035 198.174C87.2094 198.311 86.7836 198.329 86.3792 198.226C85.9747 198.123 85.6094 197.904 85.3287 197.595C85.048 197.286 84.8642 196.902 84.8002 196.489C84.7362 196.077 84.7948 195.655 84.9688 195.276C85.1427 194.896 85.4242 194.576 85.7785 194.356C86.1327 194.135 86.544 194.023 86.9611 194.035C87.5341 194.069 88.0709 194.326 88.457 194.751C88.8431 195.176 89.0481 195.735 89.0282 196.308Z" fill="#4CAF4F"/>
<g opacity="0.2">
<path d="M36.339 196.071C36.3085 196.486 36.1566 196.884 35.9022 197.214C35.6478 197.544 35.3021 197.793 34.9079 197.928C34.5137 198.064 34.0883 198.081 33.6847 197.977C33.281 197.873 32.9167 197.652 32.637 197.343C32.3573 197.034 32.1745 196.65 32.1112 196.238C32.0479 195.826 32.107 195.404 32.2811 195.026C32.4552 194.647 32.7367 194.328 33.0906 194.107C33.4444 193.887 33.8552 193.775 34.2719 193.786C34.8477 193.819 35.3876 194.076 35.7746 194.504C36.1616 194.932 36.3643 195.494 36.339 196.071Z" fill="white"/>
<path d="M42.9225 196.102C42.9429 196.393 42.903 196.685 42.8055 196.961C42.708 197.236 42.5548 197.488 42.3556 197.702C42.1564 197.916 41.9154 198.086 41.6475 198.202C41.3797 198.319 41.0907 198.379 40.7986 198.379C40.5065 198.379 40.2176 198.319 39.9497 198.202C39.6818 198.086 39.4408 197.916 39.2416 197.702C39.0424 197.488 38.8893 197.236 38.7917 196.961C38.6942 196.685 38.6544 196.393 38.6747 196.102C38.6544 195.81 38.6942 195.518 38.7917 195.242C38.8893 194.967 39.0424 194.715 39.2416 194.501C39.4408 194.288 39.6818 194.117 39.9497 194.001C40.2176 193.884 40.5065 193.824 40.7986 193.824C41.0907 193.824 41.3797 193.884 41.6475 194.001C41.9154 194.117 42.1564 194.288 42.3556 194.501C42.5548 194.715 42.708 194.967 42.8055 195.242C42.903 195.518 42.9429 195.81 42.9225 196.102Z" fill="white"/>
<path d="M49.5165 196.133C49.486 196.548 49.3341 196.946 49.0797 197.276C48.8253 197.606 48.4796 197.855 48.0854 197.99C47.6912 198.126 47.2658 198.143 46.8622 198.039C46.4585 197.935 46.0942 197.715 45.8145 197.405C45.5348 197.096 45.352 196.712 45.2887 196.3C45.2254 195.888 45.2845 195.466 45.4586 195.088C45.6327 194.709 45.9141 194.39 46.268 194.169C46.6219 193.949 47.0327 193.837 47.4494 193.848C48.0242 193.883 48.5626 194.142 48.949 194.569C49.3354 194.996 49.5391 195.557 49.5165 196.133Z" fill="white"/>
<path d="M56.1 196.164C56.0695 196.579 55.9176 196.977 55.6632 197.307C55.4088 197.637 55.0631 197.886 54.6689 198.021C54.2747 198.157 53.8494 198.174 53.4457 198.07C53.042 197.966 52.6778 197.746 52.3981 197.436C52.1184 197.127 51.9355 196.743 51.8723 196.331C51.809 195.919 51.8681 195.497 52.0422 195.119C52.2163 194.74 52.4977 194.421 52.8516 194.2C53.2055 193.98 53.6163 193.868 54.033 193.879C54.6078 193.914 55.1461 194.173 55.5326 194.6C55.919 195.027 56.1227 195.588 56.1 196.164Z" fill="white"/>
<path d="M62.6836 196.184C62.6551 196.601 62.5048 196.999 62.2515 197.331C61.9982 197.663 61.653 197.913 61.2589 198.05C60.8647 198.187 60.439 198.205 60.0345 198.102C59.6301 197.999 59.2648 197.78 58.9841 197.471C58.7034 197.162 58.5196 196.778 58.4556 196.365C58.3916 195.953 58.4502 195.531 58.6241 195.152C58.7981 194.772 59.0796 194.452 59.4339 194.232C59.7881 194.011 60.1994 193.899 60.6165 193.911C61.1895 193.945 61.7263 194.202 62.1124 194.627C62.4985 195.052 62.7035 195.611 62.6836 196.184Z" fill="white"/>
<path d="M69.2774 196.215C69.2492 196.629 69.1005 197.026 68.8497 197.357C68.5988 197.688 68.2567 197.938 67.8654 198.077C67.4742 198.216 67.0509 198.237 66.6476 198.139C66.2443 198.04 65.8787 197.826 65.5957 197.522C65.3126 197.218 65.1246 196.838 65.0547 196.429C64.9847 196.02 65.036 195.599 65.2021 195.219C65.3682 194.838 65.6419 194.515 65.9895 194.288C66.3372 194.061 66.7435 193.94 67.1587 193.942C67.7408 193.963 68.2907 194.215 68.6878 194.641C69.085 195.067 69.297 195.633 69.2774 196.215Z" fill="white"/>
<path d="M75.861 196.246C75.8814 196.538 75.8415 196.83 75.744 197.105C75.6465 197.381 75.4934 197.633 75.2942 197.847C75.0949 198.06 74.8539 198.231 74.586 198.347C74.3182 198.464 74.0292 198.524 73.7372 198.524C73.4451 198.524 73.1561 198.464 72.8882 198.347C72.6204 198.231 72.3794 198.06 72.1801 197.847C71.9809 197.633 71.8278 197.381 71.7303 197.105C71.6328 196.83 71.5929 196.538 71.6133 196.246C71.5929 195.955 71.6328 195.662 71.7303 195.387C71.8278 195.112 71.9809 194.86 72.1801 194.646C72.3794 194.432 72.6204 194.262 72.8882 194.146C73.1561 194.029 73.4451 193.969 73.7372 193.969C74.0292 193.969 74.3182 194.029 74.586 194.146C74.8539 194.262 75.0949 194.432 75.2942 194.646C75.4934 194.86 75.6465 195.112 75.744 195.387C75.8415 195.662 75.8814 195.955 75.861 196.246Z" fill="white"/>
<path d="M82.4446 196.277C82.4164 196.692 82.2677 197.088 82.0168 197.419C81.7659 197.75 81.4238 198 81.0326 198.139C80.6413 198.278 80.218 198.299 79.8148 198.201C79.4115 198.102 79.0458 197.888 78.7628 197.584C78.4798 197.28 78.2918 196.9 78.2218 196.491C78.1519 196.082 78.2031 195.661 78.3692 195.281C78.5353 194.9 78.809 194.577 79.1567 194.35C79.5043 194.123 79.9107 194.003 80.3259 194.004C80.908 194.025 81.4579 194.277 81.855 194.703C82.2521 195.129 82.4641 195.695 82.4446 196.277Z" fill="white"/>
<path d="M89.0282 196.308C88.9997 196.725 88.8494 197.123 88.5961 197.455C88.3428 197.787 87.9977 198.037 87.6035 198.174C87.2094 198.311 86.7836 198.329 86.3792 198.226C85.9747 198.123 85.6094 197.904 85.3287 197.595C85.048 197.286 84.8642 196.902 84.8002 196.489C84.7362 196.077 84.7948 195.655 84.9688 195.276C85.1427 194.896 85.4242 194.576 85.7785 194.356C86.1327 194.135 86.544 194.023 86.9611 194.035C87.5341 194.069 88.0709 194.326 88.457 194.751C88.8431 195.176 89.0481 195.735 89.0282 196.308Z" fill="white"/>
</g>
<path d="M79.6748 47.1084C80.3927 46.7923 81.0018 46.2719 81.4263 45.6122C81.8508 44.9525 82.072 44.1825 82.0622 43.3981C82.089 42.8881 82.0116 42.3781 81.8349 41.899C81.6582 41.4199 81.3858 40.9818 81.0343 40.6114C80.6828 40.241 80.2596 39.946 79.7904 39.7445C79.3213 39.5429 78.816 39.4389 78.3053 39.4389C77.7947 39.4389 77.2894 39.5429 76.8202 39.7445C76.3511 39.946 75.9278 40.241 75.5764 40.6114C75.2249 40.9818 74.9525 41.4199 74.7758 41.899C74.599 42.3781 74.5217 42.8881 74.5485 43.3981C74.5327 44.1904 74.7521 44.9696 75.1788 45.6373C75.6056 46.305 76.2206 46.8313 76.9462 47.1498C71.1585 48.0179 71.4169 54.3018 71.4169 54.3018L85.1008 54.3638C85.1008 54.3638 85.4212 47.9663 79.6748 47.1084Z" fill="#4CAF4F"/>
<path opacity="0.1" d="M79.6748 47.1084C80.3927 46.7923 81.0018 46.2719 81.4263 45.6122C81.8508 44.9525 82.072 44.1825 82.0622 43.3981C82.089 42.8881 82.0116 42.3781 81.8349 41.899C81.6582 41.4199 81.3858 40.9818 81.0343 40.6114C80.6828 40.241 80.2596 39.946 79.7904 39.7445C79.3213 39.5429 78.816 39.4389 78.3053 39.4389C77.7947 39.4389 77.2894 39.5429 76.8202 39.7445C76.3511 39.946 75.9278 40.241 75.5764 40.6114C75.2249 40.9818 74.9525 41.4199 74.7758 41.899C74.599 42.3781 74.5217 42.8881 74.5485 43.3981C74.5327 44.1904 74.7521 44.9696 75.1788 45.6373C75.6056 46.305 76.2206 46.8313 76.9462 47.1498C71.1585 48.0179 71.4169 54.3018 71.4169 54.3018L85.1008 54.3638C85.1008 54.3638 85.4212 47.9663 79.6748 47.1084Z" fill="black"/>
<path d="M101.911 58.4167L53.139 58.1954L53.1125 64.0244L101.884 64.2457L101.911 58.4167Z" fill="#4CAF4F"/>
<path opacity="0.2" d="M101.911 58.4167L53.139 58.1954L53.1125 64.0244L101.884 64.2457L101.911 58.4167Z" fill="white"/>
</svg>
