<svg width="87" height="103" viewBox="0 0 87 103" fill="none" xmlns="http://www.w3.org/2000/svg">
<path d="M60.5827 21.6633L55.2601 23.5649L52.9759 16.6093C48.7798 3.78325 35.406 -3.02769 23.1174 1.30279C10.8288 5.63326 4.28653 19.6996 8.48264 32.5256L10.7667 39.4813L5.42341 41.3933C3.3859 42.1836 1.73131 43.7286 0.80355 45.7073C-0.124208 47.6861 -0.253769 49.9462 0.441809 52.0179L15.2522 97.276C15.5597 98.3016 16.0701 99.255 16.7533 100.079C17.4364 100.904 18.2783 101.583 19.2289 102.075C20.1795 102.568 21.2194 102.864 22.2869 102.947C23.3544 103.03 24.4276 102.897 25.4428 102.557L80.6021 82.8274C82.6665 82.0384 84.3446 80.4797 85.2833 78.4789C86.222 76.4781 86.3482 74.1913 85.6354 72.0993L70.8146 26.8412C70.4992 25.8185 69.981 24.8698 69.2909 24.0517C68.6008 23.2337 67.753 22.563 66.7981 22.0797C65.8432 21.5965 64.8006 21.3105 63.7328 21.239C62.6649 21.1674 61.5936 21.3117 60.5827 21.6633ZM18.5388 28.8979C17.4074 25.563 17.6105 21.9196 19.1056 18.731C20.6006 15.5424 23.2717 13.0562 26.559 11.7931C28.1823 11.2377 29.9008 11.015 31.612 11.1382C33.3232 11.2615 34.9921 11.7282 36.519 12.5104C38.0459 13.2927 39.3996 14.3745 40.4993 15.6914C41.599 17.0082 42.4222 18.5331 42.9198 20.175L45.1935 27.1306L20.8126 35.8536L18.5388 28.8979ZM49.5446 69.0608L53.3273 80.6156C53.3968 80.8473 53.3744 81.0968 53.2647 81.3124C53.155 81.528 52.9665 81.693 52.7383 81.7731L47.4363 83.6645C47.2253 83.723 46.9998 83.6976 46.8071 83.5935C46.6144 83.4895 46.4695 83.3149 46.4027 83.1064L42.589 71.6033C40.4861 71.4887 38.4684 70.7344 36.8061 69.4415C35.1437 68.1485 33.916 66.3785 33.2873 64.3686C32.3884 61.7113 32.5523 58.8093 33.7448 56.2702C34.9373 53.7311 37.0659 51.7518 39.6848 50.7467C40.9779 50.3049 42.3467 50.1279 43.7096 50.2264C45.0725 50.3248 46.4017 50.6966 47.6178 51.3197C48.834 51.9427 49.9123 52.8042 50.7884 53.8528C51.6646 54.9014 52.3207 56.1157 52.7176 57.4233C53.3825 59.465 53.4375 61.6565 52.8758 63.729C52.3141 65.8016 51.16 67.6653 49.555 69.0918L49.5446 69.0608Z" fill="#4CAF4F"/>
<path d="M55.0223 23.4409C55.0223 23.5856 45.1522 27.296 32.8739 31.7091C20.5956 36.1223 10.5807 39.6673 10.529 39.5639C10.4773 39.4606 20.3992 35.7192 32.6878 31.2957C44.9764 26.8722 54.9707 23.3066 55.0223 23.4409Z" fill="#263238"/>
<path d="M66.7425 25.3426C66.7881 25.4323 66.8261 25.5257 66.8562 25.6217C66.9389 25.8284 67.0319 26.0971 67.1559 26.4278C67.4246 27.1823 67.7967 28.2262 68.2618 29.5284L72.2305 41.0832C73.8842 45.9821 75.8582 51.7906 78.0493 58.2398C79.0828 61.4747 80.3024 64.844 81.4393 68.389C82.0478 70.2158 82.3106 72.14 82.2144 74.0631C82.1267 75.0632 81.8422 76.0361 81.3772 76.9259C80.8805 77.8127 80.2173 78.5953 79.4239 79.2307C77.8271 80.3963 76.0548 81.2999 74.1736 81.9075L68.8509 83.8195L58.774 87.4265L41.7105 93.5037L30.1867 97.5551L27.0861 98.5886L26.2593 98.8573C26.1709 98.8967 26.0766 98.9211 25.9802 98.9297C25.9802 98.9297 26.0629 98.9297 26.2386 98.8057L27.0448 98.4853L30.1453 97.3174L41.6071 93.1006L58.6397 86.8995L68.6959 83.2614L74.0185 81.3391C75.8463 80.7561 77.5672 79.88 79.1138 78.7449C79.852 78.1554 80.4697 77.429 80.9328 76.6055C81.3705 75.7826 81.6344 74.8785 81.708 73.9494C81.8031 72.0965 81.5507 70.2421 80.9638 68.482C79.8476 64.968 78.6694 61.5677 77.6049 58.3328C75.4551 51.8732 73.4708 46.0442 71.8998 41.1452C70.3288 36.2463 69.0059 32.3086 68.0964 29.5387C67.6623 28.1848 67.3316 27.1306 67.0629 26.3658L66.8149 25.539C66.7837 25.4764 66.7594 25.4105 66.7425 25.3426Z" fill="#263238"/>
<path d="M37.6385 11.0903C37.6385 11.0903 37.0907 10.8216 36.0778 10.4082C34.6341 9.85344 33.1072 9.54596 31.5613 9.49865C29.2699 9.42008 26.9897 9.85073 24.8847 10.7596C22.3251 11.8912 20.1364 13.7217 18.5699 16.0409C16.9929 18.3534 16.1468 21.0863 16.1411 23.8853C16.1626 26.1795 16.5106 28.4589 17.1746 30.6549C17.7121 32.536 18.2702 34.0346 18.6422 35.0784C18.8617 35.6086 19.0414 36.1545 19.1797 36.7114C18.8861 36.2157 18.6404 35.6931 18.4459 35.1508C18.0221 34.1173 17.4124 32.6497 16.8129 30.7583C16.0771 28.5392 15.6765 26.2227 15.6244 23.8853C15.5968 20.9805 16.4627 18.1374 18.1048 15.7412C19.726 13.3373 22.0041 11.4502 24.6677 10.3048C26.8383 9.39099 29.1897 8.98789 31.5407 9.12658C33.1201 9.20708 34.6716 9.57482 36.1192 10.2118C36.5062 10.3903 36.8793 10.5976 37.2354 10.8319C37.3824 10.8965 37.5184 10.9837 37.6385 11.0903Z" fill="#263238"/>
<path d="M38.1138 51.5322C38.2788 51.4322 38.4516 51.3458 38.6306 51.2738C39.148 51.0403 39.6838 50.8502 40.2326 50.7054C41.1037 50.4482 42.0023 50.2956 42.9094 50.2506C44.1433 50.1843 45.3778 50.3707 46.5371 50.7984C49.1829 51.7286 51.6117 54.4261 52.8106 58.0331C53.3855 59.9688 53.3855 62.0298 52.8106 63.9655C52.1731 66.0664 51.0304 67.9791 49.4826 69.5362L49.5446 69.2572C50.9192 73.0295 52.4179 77.1223 53.9682 81.3908L54.0612 81.6491L53.8028 81.7422L51.436 82.5276L46.2684 84.2536L46.01 84.3363L45.9273 84.0779C44.5114 79.7991 42.9611 75.8097 41.7932 71.8927L42.0206 72.0683C40.0001 71.9005 38.0736 71.1421 36.4809 69.8876C35.0399 68.7778 33.8583 67.3669 33.0186 65.7535C32.2609 64.3227 31.8836 62.7212 31.923 61.1026C31.9709 59.4484 32.3839 57.8253 33.1326 56.3494C33.8812 54.8735 34.947 53.5814 36.2535 52.5657C36.7913 52.1291 37.3948 51.7803 38.0415 51.5322C37.4577 51.8786 36.8919 52.2546 36.3465 52.6587C34.9113 53.873 33.8117 55.4352 33.1529 57.1959C32.5875 58.5236 32.323 59.9601 32.3784 61.4021C32.4338 62.8441 32.8077 64.256 33.4733 65.5365C34.299 67.0886 35.4522 68.4428 36.8529 69.5052C38.3723 70.6977 40.2091 71.4165 42.1343 71.5723H42.31L42.3617 71.7273C43.4985 75.572 45.0592 79.5924 46.4958 83.8919L46.1547 83.7265L51.3223 82.0005L53.6787 81.2047L53.5134 81.5561C51.9735 77.2877 50.4852 73.1846 49.1209 69.4122V69.2572L49.2449 69.1331C50.7475 67.6406 51.8678 65.8076 52.5109 63.7898C53.0591 61.9382 53.0591 59.9674 52.5109 58.1157C51.3843 54.6431 49.0589 52.0076 46.5371 51.0774C45.4208 50.647 44.2291 50.4466 43.0334 50.4883C42.1407 50.5088 41.2531 50.6301 40.3876 50.85C38.8477 51.2325 38.1242 51.5839 38.1138 51.5322Z" fill="#263238"/>
</svg>
