<svg width="86" height="148" viewBox="0 0 86 148" fill="none" xmlns="http://www.w3.org/2000/svg">
<path d="M19.022 110.108C3.05406 98.9562 -0.563276 78.2547 0.0671754 59.6409C0.170528 56.5403 -0.170523 53.2537 1.30742 50.5355C2.78536 47.8174 6.23733 45.9467 9.01752 47.2489C11.3223 48.3341 12.3248 51.0213 13.6167 53.2434C15.3405 56.203 17.8666 58.6145 20.9031 60.199C22.8771 61.2326 25.3266 61.8527 27.2799 60.7778C29.9671 59.2999 30.2771 55.6102 30.2565 52.5096C30.2565 46.7425 30.222 40.9823 30.1531 35.229C29.9674 32.1397 30.2815 29.0406 31.0833 26.0513C32.0445 23.1161 34.1839 20.3979 37.1088 19.5711C40.0336 18.7443 43.682 20.4496 44.3434 23.4675C44.4573 24.7457 44.4884 26.03 44.4365 27.3122C44.5191 28.6041 45.1186 30.02 46.3278 30.4128C47.5371 30.8055 48.798 29.9063 49.7281 28.9968C52.9114 25.8963 55.0818 21.8552 57.0972 17.8658C59.1125 13.8764 61.0866 9.77325 63.9804 6.37294C66.8743 2.97264 70.8741 0.275144 75.3492 0.0167623C79.8244 -0.241619 84.4856 2.50756 85.6018 6.84837C86.718 11.1892 84.1859 15.623 81.4677 19.1473C77.366 24.3787 72.531 28.991 67.112 32.8416C66.0543 33.4191 65.2101 34.3213 64.7039 35.415C64.0321 37.4821 65.9855 39.5492 68.0215 40.2003C70.3263 40.9651 72.8274 40.7274 75.2562 41.0167C77.685 41.3061 80.2688 42.3603 81.1887 44.6341C82.4496 47.7967 79.8037 51.104 77.2096 53.2744C72.0006 57.6152 66.0858 61.0305 59.7223 63.3719C57.4486 64.1987 55.0611 64.9326 53.2214 66.5242C51.3818 68.1158 50.2862 70.896 51.3921 73.0768C52.498 75.2575 55.3402 75.95 57.7276 75.5056C60.1151 75.0611 62.2338 73.7796 64.5076 72.9217C68.7553 71.3198 74.233 71.6092 76.9099 75.2782C77.7392 76.5421 78.2641 77.981 78.4434 79.482C78.6227 80.983 78.4516 82.5051 77.9434 83.9288C76.909 86.7621 75.317 89.3592 73.2615 91.5665C66.4924 99.6542 57.6971 105.799 47.7748 109.374C37.9253 112.785 28.7992 113.715 19.0117 110.129" fill="#4CAF4F"/>
<path d="M81.0543 2.56958C81.0543 2.56958 80.9613 2.67293 80.7546 2.85897L79.8347 3.67545C79.0286 4.39891 77.8401 5.45312 76.3414 6.84838C72.0925 10.7935 68.147 15.0534 64.5386 19.5918C62.2338 22.4546 59.8464 25.6999 57.3039 29.2242C54.7614 32.7485 52.1363 36.5519 49.5318 40.593C46.755 44.8544 44.2122 49.2638 41.9147 53.8015C40.7158 56.1683 39.6616 58.6384 38.5764 61.1602L35.3724 68.8599C31.1492 78.5586 27.471 88.4856 24.3551 98.5945C21.8451 106.866 20.1151 115.353 19.1874 123.947C18.5863 129.746 18.4895 135.587 18.898 141.403C19.0634 143.47 19.2184 145.052 19.3631 146.126C19.4251 146.643 19.4665 147.057 19.5078 147.356V147.78C19.4633 147.646 19.4322 147.507 19.4148 147.367C19.3631 147.067 19.3011 146.664 19.2184 146.147C19.0324 145.114 18.836 143.481 18.65 141.414C18.1513 135.587 18.1859 129.726 18.7534 123.906C19.6234 115.275 21.3157 106.748 23.8073 98.4395C26.8971 88.3022 30.5652 78.3502 34.7937 68.6326L38.0803 60.9638C39.1655 58.4524 40.23 55.9615 41.4392 53.5844C43.7528 49.033 46.3164 44.6131 49.1183 40.345C51.7642 36.2109 54.4307 32.4695 56.9421 28.9762C59.4536 25.4829 61.8824 22.2169 64.1768 19.3644C67.822 14.838 71.8205 10.6079 76.1347 6.71402C77.6644 5.33943 78.8839 4.3059 79.7107 3.61344L80.6719 2.83829C80.7897 2.7357 80.9179 2.64565 81.0543 2.56958Z" fill="#263238"/>
<path d="M41.5736 53.5638C41.4278 53.138 41.3273 52.6981 41.2739 52.2512C41.1085 51.3934 40.9225 50.1841 40.7054 48.6132C40.261 45.5126 39.8063 41.2648 39.3205 36.5622C38.8348 31.8597 38.287 27.6016 37.8322 24.532C37.5945 23.0024 37.3878 21.7725 37.2431 20.9147C37.1302 20.4756 37.0712 20.0244 37.0674 19.5711C37.2454 19.9851 37.3738 20.4188 37.4498 20.863C37.6772 21.7105 37.9356 22.93 38.225 24.47C38.8141 27.5706 39.3928 31.7874 39.8786 36.5002C40.3644 41.2131 40.7778 45.3472 41.0982 48.5615C41.2532 50.0084 41.3876 51.2383 41.4909 52.2202C41.5712 52.6632 41.599 53.1142 41.5736 53.5638Z" fill="#263238"/>
<path d="M81.3437 46.1431C80.8408 46.2526 80.3286 46.3148 79.8141 46.3291C78.7806 46.4221 77.313 46.5461 75.494 46.7529C71.8559 47.1456 66.8537 47.869 61.3656 48.9026C55.8776 49.9361 50.9477 51.104 47.4027 52.0032C45.6354 52.4579 44.2091 52.8713 43.2686 53.1504C42.7664 53.3288 42.2468 53.4535 41.7183 53.5224C42.1959 53.2823 42.694 53.0851 43.2066 52.9334C44.1781 52.5923 45.5837 52.1168 47.3407 51.6104C50.865 50.5769 55.7949 49.347 61.3036 48.2928C65.97 47.4005 70.6786 46.7451 75.4113 46.3291C77.2406 46.1741 78.7186 46.1121 79.7521 46.0914C80.283 46.0553 80.8162 46.0726 81.3437 46.1431Z" fill="#263238"/>
<path d="M24.3137 97.716C24.2035 97.5664 24.1132 97.4031 24.045 97.2303L23.3629 95.7936C22.7738 94.5431 21.978 92.6931 21.0271 90.4297C19.1047 85.8822 16.6553 79.5156 14.0508 72.4463C11.4463 65.377 9.04853 59.0105 7.22952 54.4113C6.34069 52.1788 5.60691 50.3495 5.05914 48.9853L4.48034 47.5073C4.40012 47.3369 4.34447 47.1559 4.315 46.9699C4.42519 47.1195 4.5155 47.2828 4.5837 47.4556L5.26583 48.8922C5.8446 50.1428 6.65076 51.9928 7.60161 54.2562C9.52397 58.8038 11.9734 65.1703 14.5779 72.2396C17.1824 79.3089 19.5802 85.6754 21.3992 90.2746C22.288 92.507 23.0218 94.3364 23.5593 95.7006C23.797 96.2897 23.9934 96.7342 24.1484 97.1786C24.2286 97.349 24.2842 97.53 24.3137 97.716Z" fill="#263238"/>
<path d="M77.1063 80.6938C76.9408 80.7888 76.7636 80.8618 76.5792 80.9109L75.0496 81.4276L69.3962 83.257C64.6213 84.8073 58.0274 87.019 50.7927 89.4582C43.558 91.8973 36.9331 94.0677 32.1272 95.5146C29.7294 96.2484 27.776 96.8065 26.4221 97.1786L24.8615 97.5817C24.68 97.6393 24.493 97.6774 24.3034 97.6954C24.4689 97.6004 24.6461 97.5274 24.8305 97.4783L26.3601 96.9615L32.0135 95.1322C36.7884 93.5819 43.3823 91.3702 50.617 88.9311C57.8517 86.4919 64.4662 84.3215 69.2721 82.8746C71.6802 82.1408 73.6233 81.5827 74.9875 81.2106L76.5482 80.8075C76.7296 80.7499 76.9167 80.7118 77.1063 80.6938Z" fill="#263238"/>
</svg>
